:FULLY-SPECIFIED
:FORCE-ALL-JOINTS-BE-3DOF
:DEGREES
272
root 8.31683 16.1465 -25.18 8.14861 49.5905 1.54711
lfemur -28.7171 15.402 -17.9096
ltibia 36.39 -0 0
lfoot -13.7377 -10.8877 -0.144613
ltoes 59.0961 -0 0
rfemur -17.292 6.46108 1.45668
rtibia 59.5143 -0 0
rfoot 22.1003 -14.5602 1.35508
rtoes -12.9016 0 0
lowerback 1.8589 -2.46194 -1.5397
upperback -0.488512 -3.29042 2.18649
thorax -1.31339 -1.60961 3.22516
lowerneck -7.69044 -8.14651 -2.41693
upperneck 2.24546 -10.643 1.03303
head 2.25291 -5.28292 0.197304
lclavicle 2.53503e-14 1.11896e-14 0
lhumerus -42.9351 -35.1831 107.569
lradius 54.0576 -0 0
lwrist 17.5648 0 0
lhand 6.31472 10.2352 -0.00417712
lfingers 7.12502 0 0
lthumb 28.3326 33.9006 -0.0229972
rclavicle 2.53503e-14 1.11896e-14 0
rhumerus -39.6641 -5.71421 -60.6453
rradius 25.1451 -0 0
rwrist 48.4046 0 0
rhand -25.1571 2.46522 2.64875
rfingers 7.12502 0 0
rthumb -1.80127 -27.011 -0.110412
273
root 8.37817 16.1444 -25.1527 9.16672 53.0279 2.12951
lfemur -30.2128 15.9171 -19.1746
ltibia 38.5432 -0 0
lfoot -14.301 -11.9499 -0.174731
ltoes 62.5154 -0 0
rfemur -19.3293 6.4263 1.82132
rtibia 63.3066 -0 0
rfoot 23.0446 -15.0258 1.35145
rtoes -13.3735 0 0
lowerback 2.12228 -2.67636 -1.68124
upperback -0.44727 -3.58348 2.17894
thorax -1.407 -1.75208 3.31476
lowerneck -8.04187 -8.74638 -2.64648
upperneck 2.33951 -11.4311 1.24166
head 2.37523 -5.67343 0.26851
lclavicle 2.80394e-14 1.15902e-14 0
lhumerus -45.7125 -34.4634 111.805
lradius 57.0179 -0 0
lwrist 18.6601 0 0
lhand 7.0822 10.9609 0.00606759
lfingers 7.12502 0 0
lthumb 30.4053 35.9178 -0.0238086
rclavicle 2.80394e-14 1.15902e-14 0
rhumerus -42.2013 -5.46728 -64.717
rradius 26.9894 -0 0
rwrist 50.3356 0 0
rhand -26.8085 2.70979 2.79295
rfingers 7.12502 0 0
rthumb -2.01729 -28.5333 -0.110218
274
root 8.4395 16.1423 -25.1255 23.0313 70.8426 21.4534
lfemur -23.9806 6.96001 -23.0939
ltibia 41.8329 0 0
lfoot -6.34822 -22.6063 0
ltoes 63.6522 0 0
rfemur -54.677 -5.40979 14.4999
rtibia 82.6074 0 0
rfoot 7.37167 -0.590177 0
rtoes 1.37596 0 0
lowerback 6.738 -4.61229 -2.71573
upperback 1.7394 -6.3233 -2.13178
thorax -1.91208 -3.12316 -0.164029
lowerneck -4.98008 -11.3206 -4.84023
upperneck 0.669695 -14.9622 5.62359
head 1.90668 -7.39287 2.03008
lclavicle 3.07285e-14 1.19908e-14 0
lhumerus -44.5846 -35.6402 106.647
lradius 59.1166 0 0
lwrist 20.3141 0 0
lhand 19.7519 15.0959 0
lfingers 7.12502 0 0
lthumb 44.3039 38.8645 0
rclavicle 3.07285e-14 1.19908e-14 0
rhumerus -55.2369 3.9752 -97.0583
rradius 46.1277 0 0
rwrist 23.439 0 0
rhand -24.7442 3.49961 0
rfingers 7.12502 0 0
rthumb 1.75858 -746.473 0
275
root 8.49337 16.1004 -25.0747 30.3851 75.0735 28.863
lfemur -25.5602 7.56011 -24.9172
ltibia 45.4781 -0 0
lfoot -7.08138 -24.9411 0.0361612
ltoes 67.5494 -0 0
rfemur -57.8092 -5.64033 16.0836
rtibia 85.8192 -0 0
rfoot 7.64288 -1.47751 0.0536335
rtoes 3.56997 -0 0
lowerback 7.2926 -5.03434 -3.13607
upperback 1.98328 -6.90293 -2.38238
thorax -1.94991 -3.412 -0.149576
lowerneck -5.30157 -12.3014 -5.37216
upperneck 0.891258 -16.2569 6.21258
head 2.12919 -8.04263 2.25022
lclavicle 2.47949e-14 1.12873e-14 0
lhumerus -48.4936 -34.8739 111.49
lradius 63.1295 -0 0
lwrist 21.9549 0 0
lhand 21.4551 16.4128 -0.00180178
lfingers 7.12502 0 0
lthumb 47.6562 41.8584 -0.000921871
rclavicle 2.47949e-14 1.12873e-14 0
rhumerus -59.8335 4.84181 -101.657
rradius 50.5134 -0 0
rwrist 25.3556 0 0
rhand -26.9818 3.32157 0.0401559
rfingers 7.12502 0 0
rthumb 1.6553 -29.0556 0.0364626
276
root 8.54725 16.0584 -25.0238 37.9647 77.7024 36.5995
lfemur -26.6348 7.95069 -26.2359
ltibia 48.0454 -0 0
lfoot -7.59812 -26.6864 0.0671361
ltoes 70.1539 -0 0
rfemur -59.9771 -5.79622 17.2922
rtibia 87.8593 -0 0
rfoot 7.78659 -2.15578 0.0970853
rtoes 5.34229 -0 0
lowerback 7.70475 -5.34858 -3.45909
upperback 2.17331 -7.3346 -2.58148
thorax -1.96893 -3.6277 -0.145986
lowerneck -5.51425 -13.0199 -5.77749
upperneck 1.06309 -17.2042 6.65993
head 2.29437 -8.5207 2.41842
lclavicle 1.88614e-14 1.05838e-14 0
lhumerus -51.225 -34.3173 114.356
lradius 65.8238 -0 0
lwrist 23.1307 0 0
lhand 22.7159 17.3753 -0.00422447
lfingers 7.12502 0 0
lthumb 50.0112 43.9531 -0.00163122
rclavicle 1.88614e-14 1.05838e-14 0
rhumerus -63.0824 5.42885 -104.638
rradius 53.6275 -0 0
rwrist 26.6921 0 0
rhand -28.6246 3.175 0.0734377
rfingers 7.12502 0 0
rthumb 1.53447 -30.9119 0.0660343
277
root 8.60112 16.0165 -24.973 44.3862 79.173 43.2492
lfemur -27.2411 8.14805 -27.0793
ltibia 49.6498 -0 0
lfoot -7.9021 -27.8647 0.0932967
ltoes 71.718 -0 0
rfemur -61.3451 -5.88542 18.1307
rtibia 89.033 -0 0
rfoot 7.81521 -2.61262 0.13137
rtoes 6.66247 -0 0
lowerback 7.97892 -5.55735 -3.68322
upperback 2.30869 -7.62162 -2.72859
thorax -1.97245 -3.77162 -0.153341
lowerneck -5.62359 -13.4855 -6.05593
upperneck 1.18195 -17.8186 6.9658
head 2.40228 -8.83192 2.53488
lclavicle 1.29278e-14 9.88026e-15 0
lhumerus -52.8744 -33.9797 115.905
lradius 67.4314 -0 0
lwrist 23.8663 0 0
lhand 23.5544 17.9966 -0.00717397
lfingers 7.12502 0 0
lthumb 51.4912 45.2423 -0.00211734
rclavicle 1.29278e-14 9.88026e-15 0
rhumerus -65.1777 5.82347 -106.471
rradius 55.6172 -0 0
rwrist 27.4813 0 0
rhand -29.7032 3.06831 0.0997502
rfingers 7.12502 0 0
rthumb 1.4041 -32.0823 0.0890709
